<svg width="32" height="32" viewBox="0 0 32 32" fill="none" xmlns="http://www.w3.org/2000/svg">
  <circle cx="16" cy="16" r="14" fill="#10B981" stroke="#22C55E" stroke-width="2"/>
  <path d="M16 6C10.5 6 6 10.5 6 16C6 21.5 10.5 26 16 26C21.5 26 26 21.5 26 16C26 10.5 21.5 6 16 6Z" fill="#059669"/>
  <circle cx="11" cy="13" r="2" fill="#DC2626"/>
  <circle cx="21" cy="13" r="2" fill="#DC2626"/>
  <circle cx="16" cy="20" r="2" fill="#DC2626"/>
  <circle cx="10" cy="20" r="1.5" fill="#DC2626"/>
  <circle cx="22" cy="20" r="1.5" fill="#DC2626"/>
  <path d="M16 10C16.5523 10 17 9.55228 17 9C17 8.44772 16.5523 8 16 8C15.4477 8 15 8.44772 15 9C15 9.55228 15.4477 10 16 10Z" fill="#DC2626"/>
  <path d="M8 16C8.55228 16 9 15.5523 9 15C9 14.4477 8.55228 14 8 14C7.44772 14 7 14.4477 7 15C7 15.5523 7.44772 16 8 16Z" fill="#DC2626"/>
  <path d="M24 16C24.5523 16 25 15.5523 25 15C25 14.4477 24.5523 14 24 14C23.4477 14 23 14.4477 23 15C23 15.5523 23.4477 16 24 16Z" fill="#DC2626"/>
</svg>