<svg width="24" height="24" viewBox="0 0 24 24" fill="currentColor" xmlns="http://www.w3.org/2000/svg">
  <path d="M16.48 3.5H12.3l-4.64 4.64a7 7 0 0 0 0 9.9l4.64 4.64h4.18c.27 0 .52-.11.71-.29l3.48-3.48a7 7 0 0 0 0-9.9l-3.5-3.48a1 1 0 0 0-.69-.29zm.34 2L19.26 7.94a5 5 0 0 1 0 7.07l-3.08 3.08H13.3l-3.23-3.23a5 5 0 0 1 0-7.07L13.3 4.56h2.88l.34.34z"/>
  <path d="M7.52 20.5h4.18l4.64-4.64a7 7 0 0 0 0-9.9L11.7 1.32H7.52c-.27 0-.52.11-.71.29L3.33 5.09a7 7 0 0 0 0 9.9l3.5 3.48c.17.18.42.29.69.29zm-.34-2L4.74 16.06a5 5 0 0 1 0-7.07l3.08-3.08h2.88l3.23 3.23a5 5 0 0 1 0 7.07L10.7 19.44H7.82l-.34-.34z"/>
</svg>